<svg version="1.0" xmlns="http://www.w3.org/2000/svg"
 width="512.000000pt" height="512.000000pt" viewBox="0 0 512.000000 512.000000"
 preserveAspectRatio="xMidYMid meet">

<g transform="translate(0.000000,512.000000) scale(0.100000,-0.100000)"
fill="#ffffff" stroke="none">
<path fill="#ffffff" d="M265 5015 l-25 -24 0 -1231 0 -1231 25 -24 24 -25 2271 0 2271 0 24
25 25 24 0 1231 0 1231 -25 24 -24 25 -2271 0 -2271 0 -24 -25z m4455 -1255
l0 -1120 -2160 0 -2160 0 0 1120 0 1120 2160 0 2160 0 0 -1120z"/>
<path fill="#ffffff" d="M3760 4640 l0 -80 80 0 80 0 0 80 0 80 -80 0 -80 0 0 -80z"/>
<path fill="#ffffff" d="M3330 4555 l-54 -55 54 -55 54 -55 58 57 58 57 -52 53 c-29 29 -55
53 -58 53 -3 0 -30 -25 -60 -55z"/>
<path fill="#ffffff" d="M4232 4557 l-52 -53 58 -57 58 -57 54 55 54 55 -54 55 c-30 30 -57
55 -60 55 -3 0 -29 -24 -58 -53z"/>
<path fill="#ffffff" d="M3721 4464 c-253 -68 -410 -331 -346 -579 23 -86 70 -168 131 -225
l54 -51 0 -101 c0 -132 12 -171 75 -233 59 -60 101 -75 207 -75 103 0 158 21
211 80 55 61 67 103 67 227 l0 99 59 60 c107 111 157 263 133 407 -48 281
-323 463 -591 391z m217 -160 c76 -25 140 -79 181 -154 33 -59 36 -72 36 -145
0 -98 -29 -169 -95 -230 -103 -95 -100 -91 -100 -134 l0 -41 -120 0 -120 0 0
41 c0 43 2 40 -98 131 -113 102 -133 274 -47 405 78 119 227 171 363 127z m22
-879 c0 -9 -11 -27 -25 -40 -21 -22 -33 -25 -95 -25 -62 0 -74 3 -95 25 -49
48 -37 55 95 55 102 0 120 -2 120 -15z"/>
<path fill="#ffffff" d="M1076 4299 c-24 -19 -26 -26 -26 -105 l0 -84 -40 -25 -41 -26 -61 36
c-82 49 -108 53 -141 23 -31 -26 -186 -290 -193 -328 -8 -35 24 -72 96 -112
60 -32 60 -33 60 -78 0 -45 0 -46 -60 -78 -72 -40 -104 -77 -96 -112 7 -38
162 -302 193 -328 33 -30 60 -25 139 22 l58 35 41 -22 40 -22 3 -87 c3 -80 5
-89 29 -108 24 -18 40 -20 209 -20 179 0 184 1 211 24 26 23 28 29 28 106 l0
82 40 24 41 23 56 -33 c121 -73 129 -69 246 133 51 86 92 168 92 182 -1 34
-16 51 -90 96 -64 39 -65 40 -65 83 0 43 1 44 65 83 74 45 89 62 90 96 0 36
-177 337 -207 350 -35 16 -42 15 -117 -29 l-68 -40 -38 21 -38 22 -4 84 c-3
78 -5 87 -31 109 -28 23 -32 24 -211 24 -170 0 -185 -1 -210 -21z m294 -193
c0 -72 27 -110 114 -159 87 -51 135 -57 199 -24 l47 24 37 -61 c20 -33 38 -64
40 -68 2 -4 -21 -22 -52 -39 -30 -17 -59 -39 -64 -48 -12 -21 -12 -241 0 -262
5 -9 34 -31 64 -48 31 -17 54 -35 52 -39 -2 -4 -20 -35 -40 -68 l-37 -61 -47
24 c-64 33 -112 27 -199 -24 -87 -49 -114 -87 -114 -159 l0 -54 -80 0 -80 0 0
28 c0 88 -40 143 -143 196 -81 42 -118 45 -180 12 l-46 -25 -27 47 c-15 26
-34 57 -41 68 -13 21 -11 24 42 54 30 17 60 40 65 50 13 24 13 236 0 260 -5
10 -35 33 -65 50 -53 30 -55 33 -42 54 7 11 26 42 41 68 l27 47 46 -25 c62
-33 99 -30 180 12 103 53 143 108 143 197 l0 27 80 0 80 0 0 -54z"/>
<path fill="#ffffff" d="M1155 3892 c-68 -33 -127 -93 -159 -161 -32 -71 -30 -199 6 -266 32
-62 104 -130 166 -158 65 -28 179 -28 244 1 66 29 141 103 169 165 35 79 34
192 -4 269 -31 62 -84 116 -149 149 -32 17 -65 24 -128 26 -78 4 -90 2 -145
-25z m236 -168 c60 -56 74 -126 39 -193 -42 -83 -150 -110 -229 -58 -71 47
-91 136 -46 212 32 56 74 77 148 72 47 -3 63 -9 88 -33z"/>
<path fill="#ffffff" d="M3120 4080 l0 -80 80 0 80 0 0 80 0 80 -80 0 -80 0 0 -80z"/>
<path fill="#ffffff" d="M4400 4080 l0 -80 80 0 80 0 0 80 0 80 -80 0 -80 0 0 -80z"/>
<path fill="#ffffff" d="M2160 3600 l0 -80 80 0 80 0 0 80 0 80 -80 0 -80 0 0 -80z"/>
<path fill="#ffffff" d="M2480 3600 l0 -80 80 0 80 0 0 80 0 80 -80 0 -80 0 0 -80z"/>
<path fill="#ffffff" d="M2800 3600 l0 -80 80 0 80 0 0 80 0 80 -80 0 -80 0 0 -80z"/>
<path fill="#ffffff" d="M2800 3280 l0 -80 80 0 80 0 0 80 0 80 -80 0 -80 0 0 -80z"/>
<path fill="#ffffff" d="M2800 2960 l0 -80 80 0 80 0 0 80 0 80 -80 0 -80 0 0 -80z"/>
<path fill="#ffffff" d="M3120 2960 l0 -80 80 0 80 0 0 80 0 80 -80 0 -80 0 0 -80z"/>
<path fill="#ffffff" d="M3440 2960 l0 -80 80 0 80 0 0 80 0 80 -80 0 -80 0 0 -80z"/>
<path fill="#ffffff" d="M3760 2960 l0 -80 80 0 80 0 0 80 0 80 -80 0 -80 0 0 -80z"/>
<path fill="#ffffff" d="M2095 2306 c-37 -16 -70 -52 -84 -89 -17 -45 -15 -559 3 -601 22 -53
78 -89 146 -94 l57 -4 -28 -112 c-35 -136 -35 -151 -4 -181 47 -48 65 -39 281
134 l199 159 97 3 c104 4 129 15 172 73 20 26 21 40 21 325 l0 298 -29 37
c-49 65 -55 66 -448 66 -272 -1 -360 -4 -383 -14z m705 -386 l0 -240 -94 0
-94 0 -112 -90 c-62 -50 -115 -88 -117 -86 -3 2 0 21 6 43 16 58 13 82 -14
108 -22 23 -32 25 -120 25 l-95 0 0 240 0 240 320 0 320 0 0 -240z"/>
<path fill="#ffffff" d="M3215 2306 c-37 -16 -70 -52 -84 -89 -7 -18 -11 -131 -11 -298 0
-302 3 -317 66 -365 34 -26 46 -29 133 -33 l96 -3 199 -159 c216 -173 234
-182 281 -134 31 30 31 45 -4 181 l-28 112 58 4 c63 5 97 23 133 72 20 26 21
40 21 325 l0 298 -29 37 c-49 65 -55 66 -448 66 -272 -1 -360 -4 -383 -14z
m705 -386 l0 -240 -95 0 c-88 0 -98 -2 -120 -25 -27 -26 -30 -50 -14 -108 6
-22 9 -41 6 -43 -2 -2 -55 36 -117 86 l-112 90 -94 0 -94 0 0 240 0 240 320 0
320 0 0 -240z"/>
<path fill="#ffffff" d="M545 1586 c-107 -34 -186 -102 -232 -201 -24 -51 -28 -73 -28 -145 0
-77 3 -92 33 -153 19 -38 32 -69 30 -71 -1 -1 -23 -11 -48 -21 -66 -29 -145
-112 -183 -192 l-32 -68 -3 -302 -3 -303 25 -25 25 -25 991 0 991 0 25 25 25
25 -3 303 -3 302 -32 68 c-38 80 -117 163 -183 192 -25 10 -47 20 -48 21 -2 2
11 33 30 71 30 61 33 76 33 153 0 72 -4 94 -28 145 -132 283 -522 283 -654 0
-24 -51 -28 -73 -28 -145 0 -77 3 -92 33 -153 19 -38 32 -69 30 -70 -1 -1 -25
-13 -53 -27 -27 -14 -69 -43 -92 -66 l-43 -41 -43 41 c-23 23 -65 52 -92 66
-28 14 -52 26 -53 27 -2 1 11 32 30 70 30 61 33 76 33 153 0 72 -4 94 -28 145
-30 65 -81 124 -138 160 -78 50 -199 68 -284 41z m189 -171 c154 -73 129 -318
-37 -364 -154 -44 -289 91 -247 247 13 51 75 117 122 131 46 14 116 8 162 -14z
m960 0 c154 -73 129 -318 -37 -364 -154 -44 -289 91 -247 247 13 51 75 117
122 131 46 14 116 8 162 -14z m-820 -547 c26 -8 60 -31 91 -63 70 -70 75 -92
75 -349 l0 -216 -400 0 -400 0 0 216 c0 141 4 231 12 258 15 51 99 137 148
153 50 16 421 16 474 1z m960 0 c26 -8 60 -31 91 -63 70 -70 75 -92 75 -349
l0 -216 -400 0 -400 0 0 216 c0 141 4 231 12 258 15 51 99 137 148 153 50 16
421 16 474 1z"/>
<path fill="#ffffff" d="M4385 1586 c-107 -34 -186 -102 -232 -201 -24 -51 -28 -73 -28 -145
0 -77 3 -92 33 -153 19 -38 32 -69 30 -71 -1 -1 -23 -11 -48 -21 -66 -29 -145
-112 -183 -192 l-32 -68 -3 -302 -3 -303 25 -25 25 -25 511 0 511 0 25 25 25
25 -3 303 -3 302 -32 68 c-38 80 -117 163 -183 192 -25 10 -47 20 -48 21 -2 2
11 33 30 71 30 61 33 76 33 153 0 72 -4 94 -28 145 -30 65 -81 124 -138 160
-78 50 -199 68 -284 41z m189 -171 c154 -73 129 -318 -37 -364 -154 -44 -289
91 -247 247 13 51 75 117 122 131 46 14 116 8 162 -14z m140 -547 c55 -16 138
-99 154 -154 8 -27 12 -117 12 -258 l0 -216 -400 0 -400 0 0 216 c0 141 4 231
12 258 15 51 99 137 148 153 50 16 421 16 474 1z"/>
</g>
</svg>
